<svg width="24" height="24" viewBox="0 0 24 24" fill="none" xmlns="http://www.w3.org/2000/svg">
<mask id="mask0_130_10" style="mask-type:alpha" maskUnits="userSpaceOnUse" x="0" y="0" width="24" height="24">
<rect width="24" height="24" fill="#D9D9D9"/>
</mask>
<g mask="url(#mask0_130_10)">
<path d="M14.8571 9.64286C14.8571 10.6848 15.2334 11.684 15.9032 12.4208C16.573 13.1575 17.4814 13.5714 18.4286 13.5714C19.3758 13.5714 20.2842 13.1575 20.954 12.4208C21.6237 11.684 22 10.6848 22 9.64286C22.0001 9.52097 21.9744 9.40073 21.925 9.29164L19.0679 3.00593C18.991 2.83663 18.8612 2.70351 18.7023 2.63105C18.5434 2.55859 18.3661 2.55165 18.2029 2.6115L13.6807 4.26936C13.4302 3.91907 13.0954 3.65311 12.7143 3.50171V1H11.2857V3.50171C10.8759 3.66108 10.52 3.95395 10.2653 4.34135C10.0106 4.72875 9.86925 5.1923 9.86 5.67029L5.34571 7.32579C5.16611 7.39163 5.01761 7.53322 4.93286 7.71943L2.07571 14.0051C2.02593 14.1144 2.00001 14.2349 2 14.3571C2 15.3991 2.37627 16.3983 3.04605 17.1351C3.71582 17.8718 4.62423 18.2857 5.57143 18.2857C6.51863 18.2857 7.42704 17.8718 8.09681 17.1351C8.76658 16.3983 9.14286 15.3991 9.14286 14.3571C9.14296 14.2353 9.11728 14.115 9.06786 14.0059L6.57857 8.53029L10.3193 7.15843C10.5697 7.50881 10.9046 7.77478 11.2857 7.92607V21.4286H4.85714V23H19.1429V21.4286H12.7143V7.92686C13.1241 7.76749 13.48 7.47462 13.7347 7.08722C13.9894 6.69982 14.1308 6.23627 14.14 5.75829L17.0186 4.70229L14.9329 9.29086C14.8831 9.40012 14.8572 9.52064 14.8571 9.64286ZM5.57143 16.7143C5.12984 16.7126 4.69954 16.5606 4.33955 16.2793C3.97957 15.9979 3.70752 15.601 3.56071 15.1429H7.58214C7.43534 15.601 7.16329 15.9979 6.8033 16.2793C6.44332 16.5606 6.01302 16.7126 5.57143 16.7143ZM7.27286 13.5714H3.87L5.57143 9.82829L7.27286 13.5714ZM12 6.5C11.8587 6.5 11.7206 6.45392 11.6032 6.36758C11.4857 6.28125 11.3941 6.15854 11.3401 6.01497C11.286 5.8714 11.2719 5.71341 11.2994 5.561C11.327 5.40859 11.395 5.26859 11.4949 5.1587C11.5948 5.04882 11.7221 4.97399 11.8607 4.94367C11.9992 4.91335 12.1428 4.92891 12.2733 4.98838C12.4039 5.04785 12.5154 5.14856 12.5939 5.27777C12.6724 5.40698 12.7143 5.55889 12.7143 5.71429C12.7143 5.92267 12.639 6.12252 12.5051 6.26987C12.3711 6.41722 12.1894 6.5 12 6.5ZM18.4286 12C17.987 11.9983 17.5567 11.8463 17.1967 11.565C16.8367 11.2837 16.5647 10.8867 16.4179 10.4286H20.4393C20.2925 10.8867 20.0204 11.2837 19.6604 11.565C19.3005 11.8463 18.8702 11.9983 18.4286 12ZM18.4286 5.114L20.13 8.85714H16.7271L18.4286 5.114Z" fill="#A6A5A5"/>
</g>
</svg>
