<svg width="112" height="24" viewBox="0 0 112 24" fill="none" xmlns="http://www.w3.org/2000/svg">
<path d="M12 17.27L16.15 19.78C16.91 20.24 17.8399 19.56 17.6399 18.7L16.54 13.98L20.2099 10.8C20.8799 10.22 20.5199 9.12001 19.6399 9.05001L14.81 8.64001L12.92 4.18001C12.58 3.37001 11.42 3.37001 11.08 4.18001L9.18995 8.63001L4.35995 9.04001C3.47995 9.11001 3.11995 10.21 3.78995 10.79L7.45995 13.97L6.35995 18.69C6.15995 19.55 7.08995 20.23 7.84995 19.77L12 17.27Z" fill="#FFAA04"/>
<path d="M34 17.27L38.15 19.78C38.91 20.24 39.8399 19.56 39.6399 18.7L38.54 13.98L42.2099 10.8C42.8799 10.22 42.5199 9.12001 41.6399 9.05001L36.81 8.64001L34.92 4.18001C34.58 3.37001 33.42 3.37001 33.08 4.18001L31.1899 8.63001L26.36 9.04001C25.48 9.11001 25.12 10.21 25.79 10.79L29.46 13.97L28.36 18.69C28.16 19.55 29.09 20.23 29.85 19.77L34 17.27Z" fill="#FFAA04"/>
<path d="M56 17.27L60.15 19.78C60.91 20.24 61.8399 19.56 61.6399 18.7L60.54 13.98L64.2099 10.8C64.8799 10.22 64.5199 9.12001 63.6399 9.05001L58.81 8.64001L56.92 4.18001C56.58 3.37001 55.42 3.37001 55.08 4.18001L53.1899 8.63001L48.36 9.04001C47.48 9.11001 47.12 10.21 47.79 10.79L51.46 13.97L50.36 18.69C50.16 19.55 51.09 20.23 51.85 19.77L56 17.27Z" fill="#FFAA04"/>
<path d="M78 17.27L82.15 19.78C82.91 20.24 83.8399 19.56 83.6399 18.7L82.54 13.98L86.2099 10.8C86.8799 10.22 86.5199 9.12001 85.6399 9.05001L80.81 8.64001L78.92 4.18001C78.58 3.37001 77.42 3.37001 77.08 4.18001L75.1899 8.63001L70.36 9.04001C69.48 9.11001 69.12 10.21 69.79 10.79L73.46 13.97L72.36 18.69C72.16 19.55 73.09 20.23 73.85 19.77L78 17.27Z" fill="#FFAA04"/>
<path d="M100 17.27L104.15 19.78C104.91 20.24 105.84 19.56 105.64 18.7L104.54 13.98L108.21 10.8C108.88 10.22 108.52 9.12001 107.64 9.05001L102.81 8.64001L100.92 4.18001C100.58 3.37001 99.42 3.37001 99.08 4.18001L97.1899 8.63001L92.36 9.04001C91.48 9.11001 91.12 10.21 91.79 10.79L95.46 13.97L94.36 18.69C94.16 19.55 95.09 20.23 95.85 19.77L100 17.27Z" fill="#FFAA04"/>
</svg>
